<svg xmlns="http://www.w3.org/2000/svg" xmlns:xlink="http://www.w3.org/1999/xlink" version="1.1" x="0px" y="0px" viewBox="0 0 78.109 87.15625" enable-background="new 0 0 78.109 69.725" xml:space="preserve"><path d="M33.651,24.156L22.883,5.505C13.339,11.029,6.914,21.341,6.912,33.161h21.414C28.379,29.306,30.511,25.95,33.651,24.156z"/><path d="M38.856,43.844c-1.943,0-3.758-0.538-5.322-1.458l-10.646,18.44c4.699,2.719,10.149,4.282,15.969,4.282  c5.818,0,11.269-1.563,15.967-4.281l-10.646-18.44C42.613,43.307,40.798,43.844,38.856,43.844z"/><path d="M54.837,5.51L44.07,24.161c3.141,1.798,5.272,5.16,5.317,9.021h21.414c0-0.006,0-0.011,0-0.017  C70.801,21.347,64.377,11.035,54.837,5.51z"/><path d="M31.326,33.161c-0.001,0.049-0.007,0.097-0.007,0.146c0,2.764,1.493,5.174,3.712,6.486c1.123,0.663,2.427,1.051,3.826,1.051  c1.397,0,2.702-0.387,3.824-1.05c2.22-1.312,3.713-3.723,3.713-6.487c0-0.042-0.005-0.083-0.006-0.125  c-0.045-2.757-1.569-5.15-3.814-6.427c-1.098-0.624-2.364-0.985-3.716-0.985c-1.349,0-2.613,0.359-3.708,0.98  C32.903,28.021,31.379,30.41,31.326,33.161z"/><text x="0" y="84.725" fill="#000000" font-size="5px" font-weight="bold" font-family="'Helvetica Neue', Helvetica, Arial-Unicode, Arial, Sans-serif">Created by corpus delicti</text><text x="0" y="89.725" fill="#000000" font-size="5px" font-weight="bold" font-family="'Helvetica Neue', Helvetica, Arial-Unicode, Arial, Sans-serif">from the Noun Project</text></svg>