<svg xmlns="http://www.w3.org/2000/svg" viewBox="0 0 64 80" x="0px" y="0px"><title>recent</title><g><path d="M44,33.5H32A1.5,1.5,0,0,1,30.5,32V22a1.5,1.5,0,0,1,3,0v8.5H44a1.5,1.5,0,0,1,0,3Z"/><path d="M32,55.38A23.38,23.38,0,1,1,55.38,32,23.4,23.4,0,0,1,32,55.38Zm0-43.75A20.38,20.38,0,1,0,52.38,32,20.4,20.4,0,0,0,32,11.63Z"/></g><text x="0" y="79" fill="#000000" font-size="5px" font-weight="bold" font-family="'Helvetica Neue', Helvetica, Arial-Unicode, Arial, Sans-serif">Created by denimao</text><text x="0" y="84" fill="#000000" font-size="5px" font-weight="bold" font-family="'Helvetica Neue', Helvetica, Arial-Unicode, Arial, Sans-serif">from the Noun Project</text></svg>