<svg xmlns="http://www.w3.org/2000/svg" data-name="Layer 1" viewBox="0 0 100 125" x="0px" y="0px"><title>07</title><path d="M20.94,81.08H79.06a10,10,0,0,0,10-10V40a10,10,0,0,0-10-10H49.32a2,2,0,0,1-1.65-.87l-5.21-7.6a6,6,0,0,0-4.95-2.6H20.94a10,10,0,0,0-10,10V71.08A10,10,0,0,0,20.94,81.08Zm-6-52.17a6,6,0,0,1,6-6H37.51a2,2,0,0,1,1.65.87l5.21,7.6A6,6,0,0,0,49.32,34H79.06a6,6,0,0,1,6,6v31.1a6,6,0,0,1-6,6H20.94a6,6,0,0,1-6-6Z"/><text x="0" y="115" fill="#000000" font-size="5px" font-weight="bold" font-family="'Helvetica Neue', Helvetica, Arial-Unicode, Arial, Sans-serif">Created by Bhima</text><text x="0" y="120" fill="#000000" font-size="5px" font-weight="bold" font-family="'Helvetica Neue', Helvetica, Arial-Unicode, Arial, Sans-serif">from the Noun Project</text></svg>