<svg xmlns="http://www.w3.org/2000/svg" xmlns:xlink="http://www.w3.org/1999/xlink" xml:space="preserve" version="1.1" style="shape-rendering:geometricPrecision;text-rendering:geometricPrecision;image-rendering:optimizeQuality;" viewBox="0 0 600 750" x="0px" y="0px" fill-rule="evenodd" clip-rule="evenodd"><g><path class="fil0" d="M186 420c0,3 1,6 4,8l0 0c1,1 4,2 6,2 2,0 4,-1 5,-2l207 -119c2,-1 4,-2 5,-4 2,-4 1,-11 -4,-13l-208 -121 0 0c-1,0 -3,-1 -5,-1 -5,0 -10,5 -10,10 0,27 0,53 0,80 0,53 0,107 0,160zm20 -17c0,-48 0,-96 0,-143 0,-21 0,-42 0,-63l178 103 -178 103z"/></g><text x="0" y="615" fill="#000000" font-size="5px" font-weight="bold" font-family="'Helvetica Neue', Helvetica, Arial-Unicode, Arial, Sans-serif">Created by BackFake</text><text x="0" y="620" fill="#000000" font-size="5px" font-weight="bold" font-family="'Helvetica Neue', Helvetica, Arial-Unicode, Arial, Sans-serif">from the Noun Project</text></svg>