<svg xmlns="http://www.w3.org/2000/svg" xmlns:xlink="http://www.w3.org/1999/xlink" version="1.1" x="0px" y="0px" viewBox="0 0 100 125" style="enable-background:new 0 0 100 100;" xml:space="preserve"><g><g><path d="M29.54,41.41v19.11c0,3.97,9.11,7.19,20.34,7.19s20.34-3.22,20.34-7.19V41.41c0,3.97-9.11,7.19-20.34,7.19    S29.54,45.38,29.54,41.41z"/><path d="M72.07,61.75c-0.81,3-4.46,4.8-7.14,5.75c-4.64,1.64-10.15,2.22-15.05,2.22c-4.9,0-10.41-0.58-15.05-2.22    c-2.68-0.95-6.33-2.75-7.14-5.75c-2.94,2.38-4.83,6.01-4.83,10.06v13.15c0,0.21,0.01,0.41,0.02,0.61    c12.94,10.41,42.65,9.79,54.01,0c0.01-0.2,0.01-0.41,0.01-0.61V71.81C76.9,67.76,75.01,64.12,72.07,61.75z"/><path d="M31.5,34.38c0,2.38,0.04,4.68,0.04,7.03c0,0.45,0.57,1,0.88,1.26c0.11,0.09,0.22,0.17,0.33,0.26v-8.88v-0.35l-0.3-0.18    c-0.55-0.33-1-0.8-1.31-1.35c-0.3-0.53-0.47-1.15-0.47-1.81c0-1.02,0.41-1.94,1.08-2.61c0.67-0.67,1.59-1.08,2.61-1.08    c1.02,0,1.94,0.41,2.61,1.08c0.67,0.67,1.08,1.59,1.08,2.61c0,0.66-0.17,1.28-0.47,1.81c-0.31,0.55-0.77,1.02-1.31,1.35l-0.3,0.18    v0.35v10.49c0.07,0.02,0.13,0.05,0.19,0.07c0.35,0.12,0.7,0.24,1.06,0.35V34.38c0.59-0.42,1.09-0.97,1.45-1.61    c0.3-0.53,0.5-1.12,0.59-1.74v14.47c0.41,0.1,0.83,0.18,1.25,0.27V21.79v-0.35l-0.3-0.18c-0.55-0.33-1-0.8-1.31-1.35    c-0.3-0.53-0.47-1.15-0.47-1.81c0-1.02,0.41-1.94,1.08-2.61c0.67-0.67,1.59-1.08,2.61-1.08c1.02,0,1.94,0.41,2.61,1.08    c0.67,0.67,1.08,1.59,1.08,2.61c0,0.66-0.17,1.28-0.47,1.81c-0.31,0.55-0.77,1.02-1.31,1.35l-0.3,0.18v0.35v24.46    c0.42,0.05,0.84,0.09,1.25,0.13V22.13c0.59-0.42,1.09-0.97,1.45-1.61c0.3-0.53,0.5-1.12,0.59-1.74v27.74    c0.42,0.02,0.84,0.04,1.25,0.05v-33.8v-0.35l-0.3-0.18c-0.55-0.33-1-0.8-1.31-1.35c-0.3-0.53-0.47-1.15-0.47-1.81    c0-1.02,0.41-1.94,1.08-2.61c0.67-0.67,1.59-1.08,2.61-1.08c1.02,0,1.94,0.41,2.61,1.08c0.67,0.67,1.08,1.59,1.08,2.61    c0,0.66-0.17,1.28-0.47,1.81c-0.31,0.55-0.77,1.02-1.31,1.35l-0.3,0.18v0.35v33.8c0.41-0.01,0.83-0.03,1.25-0.05V28.45    c0.09,0.62,0.29,1.21,0.59,1.74c0.36,0.64,0.86,1.19,1.45,1.61v14.58c0.42-0.04,0.84-0.08,1.25-0.13V31.46v-0.35l-0.3-0.18    c-0.55-0.33-1-0.8-1.31-1.35c-0.3-0.53-0.47-1.15-0.47-1.81c0-1.02,0.41-1.94,1.08-2.61c0.67-0.67,1.59-1.08,2.61-1.08    c1.02,0,1.94,0.41,2.61,1.08c0.67,0.67,1.08,1.59,1.08,2.61c0,0.66-0.17,1.28-0.47,1.81c-0.31,0.55-0.77,1.02-1.31,1.35l-0.3,0.18    v0.35v14.29c0.42-0.08,0.84-0.17,1.25-0.27V31.8c0.59-0.42,1.09-0.97,1.45-1.61c0.3-0.53,0.5-1.12,0.59-1.74v16.5    c0.36-0.11,0.71-0.23,1.06-0.35c0.06-0.02,0.13-0.05,0.19-0.07V24.86V24.5l-0.3-0.18c-0.55-0.33-1-0.8-1.31-1.35    c-0.3-0.53-0.47-1.15-0.47-1.81c0-1.02,0.41-1.94,1.08-2.61c0.67-0.67,1.59-1.08,2.61-1.08c1.02,0,1.94,0.41,2.61,1.08    c0.67,0.67,1.08,1.59,1.08,2.61c0,0.66-0.17,1.28-0.47,1.81c-0.31,0.55-0.77,1.02-1.31,1.35l-0.3,0.18v0.35v18.07    c0.11-0.08,0.23-0.17,0.33-0.26c0.31-0.26,0.88-0.8,0.88-1.26c0-5.36,0.04-10.8,0.04-16.22c0.59-0.42,1.09-0.97,1.45-1.61    c0.41-0.72,0.64-1.55,0.64-2.43c0-1.37-0.55-2.6-1.45-3.5c-0.9-0.9-2.13-1.45-3.5-1.45c-1.37,0-2.6,0.55-3.5,1.45    c-0.9,0.9-1.45,2.13-1.45,3.5c0,0.88,0.23,1.71,0.64,2.43c0.36,0.64,0.86,1.19,1.45,1.61v1.91c-0.15-1.1-0.65-2.09-1.4-2.84    c-0.9-0.9-2.13-1.45-3.5-1.45c-1.37,0-2.6,0.55-3.5,1.45c-0.75,0.75-1.25,1.74-1.4,2.84v-14c0.59-0.42,1.09-0.97,1.45-1.61    c0.41-0.72,0.64-1.55,0.64-2.43c0-1.37-0.55-2.6-1.45-3.5c-0.9-0.9-2.13-1.45-3.5-1.45c-1.37,0-2.6,0.55-3.5,1.45    c-0.9,0.9-1.45,2.13-1.45,3.5c0,0.88,0.23,1.71,0.64,2.43c0.36,0.64,0.86,1.19,1.45,1.61v4.33c-0.15-1.1-0.65-2.09-1.4-2.84    c-0.9-0.9-2.13-1.45-3.5-1.45c-1.37,0-2.6,0.55-3.5,1.45c-0.9,0.9-1.45,2.13-1.45,3.5c0,0.88,0.23,1.71,0.64,2.43    c0.36,0.64,0.86,1.19,1.45,1.61v7.55c-0.15-1.1-0.65-2.09-1.4-2.84c-0.9-0.9-2.13-1.45-3.5-1.45c-1.37,0-2.6,0.55-3.5,1.45    c-0.9,0.9-1.45,2.13-1.45,3.5c0,0.88,0.23,1.71,0.64,2.43C30.41,33.41,30.91,33.96,31.5,34.38z"/><path d="M37.22,30.34c0-1.58-1.28-2.86-2.86-2.86s-2.86,1.28-2.86,2.86c0,1.58,1.28,2.86,2.86,2.86S37.22,31.92,37.22,30.34z"/><circle cx="42.12" cy="18.09" r="2.86"/><circle cx="49.88" cy="9.07" r="2.86"/><path d="M68.26,21.16c0-1.58-1.28-2.86-2.86-2.86c-1.58,0-2.86,1.28-2.86,2.86c0,1.58,1.28,2.86,2.86,2.86    C66.98,24.01,68.26,22.73,68.26,21.16z"/><path d="M60.5,27.76c0-1.58-1.28-2.86-2.86-2.86s-2.86,1.28-2.86,2.86c0,1.58,1.28,2.86,2.86,2.86S60.5,29.34,60.5,27.76z"/></g></g><text x="0" y="115" fill="#000000" font-size="5px" font-weight="bold" font-family="'Helvetica Neue', Helvetica, Arial-Unicode, Arial, Sans-serif">Created by ABDUL LATIF</text><text x="0" y="120" fill="#000000" font-size="5px" font-weight="bold" font-family="'Helvetica Neue', Helvetica, Arial-Unicode, Arial, Sans-serif">from the Noun Project</text></svg>