<svg xmlns="http://www.w3.org/2000/svg" xmlns:xlink="http://www.w3.org/1999/xlink" version="1.1" x="0px" y="0px" viewBox="0 0 512 640" style="enable-background:new 0 0 512 512;" xml:space="preserve"><g><g><g><g><path d="M155.945,212.608c-32.84,0-59.557-26.717-59.557-59.557c0-32.9,26.717-59.666,59.557-59.666      c32.9,0,59.666,26.766,59.666,59.666C215.611,185.891,188.845,212.608,155.945,212.608z M155.945,113.386      c-21.812,0-39.557,17.794-39.557,39.666c0,21.812,17.745,39.557,39.557,39.557c21.872,0,39.666-17.745,39.666-39.557      C195.611,131.18,177.817,113.386,155.945,113.386z"/></g><g><path d="M155.993,169.189c-8.925,0-16.186-7.261-16.186-16.186c0-8.933,7.261-16.2,16.186-16.2      c8.932,0,16.199,7.267,16.199,16.2C172.192,161.929,164.925,169.189,155.993,169.189z M155.993,149.189      c-2.096,0-3.801,1.711-3.801,3.814c0,2.096,1.705,3.8,3.801,3.8c2.104,0,3.814-1.705,3.814-3.8      C159.808,150.865,158.132,149.189,155.993,149.189z"/></g><g><path d="M168.17,289.994H143.83c-4.683,0-8.739-3.25-9.759-7.82l-6.777-30.339c-7.256-2.099-14.233-4.989-20.848-8.637      l-26.313,16.659c-3.953,2.503-9.112,1.93-12.42-1.378l-17.194-17.195c-3.308-3.308-3.88-8.467-1.378-12.42l16.666-26.323      c-3.656-6.646-6.548-13.62-8.641-20.837l-30.341-6.777c-4.57-1.021-7.82-5.077-7.82-9.76v-24.341c0-4.683,3.25-8.739,7.82-9.759      l30.34-6.777c2.093-7.217,4.985-14.19,8.641-20.837L49.14,77.129c-2.502-3.953-1.93-9.112,1.378-12.42l17.194-17.194      c3.312-3.312,8.477-3.881,12.43-1.372l26.304,16.698c6.577-3.632,13.55-6.529,20.841-8.659l6.783-30.363      c1.021-4.57,5.076-7.82,9.759-7.82h24.341c4.683,0,8.739,3.25,9.759,7.82l6.783,30.363c7.29,2.13,14.265,5.027,20.841,8.659      l26.304-16.698c3.954-2.51,9.121-1.939,12.43,1.372l17.195,17.194c3.308,3.308,3.88,8.467,1.378,12.42l-16.666,26.323      c3.656,6.646,6.548,13.62,8.641,20.837l30.341,6.777c4.57,1.021,7.82,5.076,7.82,9.759v24.341c0,4.683-3.25,8.739-7.82,9.76      l-30.338,6.777c-2.099,7.256-4.989,14.232-8.637,20.848l16.659,26.313c2.502,3.953,1.93,9.112-1.378,12.42l-17.194,17.195      c-3.309,3.307-8.468,3.879-12.42,1.378l-26.323-16.666c-6.646,3.657-13.618,6.548-20.837,8.641l-6.778,30.341      C176.909,286.744,172.854,289.994,168.17,289.994z M151.842,269.994h8.315l6.367-28.504c0.845-3.785,3.804-6.74,7.59-7.582      c9.267-2.06,18.104-5.722,26.269-10.887c3.266-2.065,7.429-2.064,10.695,0.002l24.726,15.654l5.877-5.877l-15.654-24.726      c-2.072-3.273-2.067-7.449,0.013-10.718c5.138-8.075,8.796-16.906,10.872-26.246c0.841-3.786,3.796-6.745,7.582-7.59      l28.503-6.367v-8.315l-28.503-6.367c-3.786-0.845-6.741-3.804-7.582-7.59c-2.059-9.265-5.722-18.103-10.887-26.269      c-2.066-3.266-2.065-7.43,0.002-10.695l15.654-24.726l-5.87-5.87l-24.723,15.694c-3.28,2.082-7.468,2.076-10.741-0.014      c-7.994-5.105-16.835-8.781-26.28-10.928c-3.765-0.856-6.702-3.803-7.543-7.571L160.158,36h-8.315l-6.367,28.503      c-0.842,3.769-3.778,6.715-7.543,7.571c-9.444,2.146-18.286,5.823-26.28,10.928c-3.273,2.091-7.462,2.096-10.741,0.014      L76.188,67.323l-5.87,5.87l15.654,24.726c2.067,3.265,2.068,7.429,0.002,10.695c-5.165,8.166-8.828,17.004-10.887,26.269      c-0.841,3.786-3.796,6.745-7.582,7.59l-28.503,6.367v8.315l28.503,6.367c3.785,0.846,6.74,3.804,7.582,7.59      c2.059,9.265,5.722,18.103,10.887,26.269c2.066,3.266,2.065,7.43-0.002,10.695l-15.654,24.726l5.877,5.877l24.726-15.654      c3.272-2.072,7.449-2.068,10.718,0.013c8.074,5.138,16.904,8.796,26.246,10.872c3.786,0.841,6.745,3.796,7.59,7.582      L151.842,269.994z"/></g><g><path d="M355.945,418.614c-32.84,0-59.557-26.717-59.557-59.557c0-32.9,26.717-59.666,59.557-59.666      c32.9,0,59.666,26.766,59.666,59.666C415.611,391.897,388.846,418.614,355.945,418.614z M355.945,319.392      c-21.812,0-39.557,17.794-39.557,39.666c0,21.812,17.745,39.557,39.557,39.557c21.872,0,39.666-17.745,39.666-39.557      C395.611,337.186,377.817,319.392,355.945,319.392z"/></g><g><path d="M355.993,375.195c-8.925,0-16.186-7.261-16.186-16.186c0-8.933,7.261-16.199,16.186-16.199      c8.933,0,16.199,7.267,16.199,16.199C372.192,367.935,364.926,375.195,355.993,375.195z M355.993,355.195      c-2.096,0-3.801,1.711-3.801,3.814c0,2.096,1.705,3.801,3.801,3.801c2.104,0,3.814-1.705,3.814-3.801      C359.808,356.871,358.132,355.195,355.993,355.195z"/></g><g><path d="M368.17,496h-24.34c-4.683,0-8.738-3.25-9.76-7.82l-6.777-30.338c-7.256-2.1-14.231-4.989-20.848-8.638l-26.313,16.659      c-3.953,2.502-9.112,1.931-12.421-1.378l-17.194-17.194c-3.308-3.309-3.881-8.468-1.378-12.421l16.665-26.323      c-3.656-6.646-6.547-13.618-8.641-20.837l-30.34-6.776c-4.57-1.021-7.82-5.077-7.82-9.76v-24.341c0-4.683,3.25-8.738,7.82-9.76      l30.341-6.777c2.094-7.218,4.984-14.19,8.642-20.837l-16.666-26.323c-2.502-3.953-1.93-9.112,1.378-12.421l17.194-17.194      c3.313-3.313,8.479-3.881,12.431-1.372l26.305,16.698c6.577-3.632,13.551-6.529,20.841-8.659l6.782-30.362      c1.021-4.57,5.077-7.82,9.76-7.82h24.34c4.683,0,8.738,3.25,9.76,7.82l6.782,30.362c7.29,2.13,14.264,5.027,20.841,8.659      l26.305-16.698c3.952-2.51,9.117-1.941,12.431,1.372l17.194,17.194c3.308,3.309,3.88,8.468,1.378,12.421l-16.666,26.323      c3.657,6.646,6.548,13.619,8.642,20.837l30.341,6.777c4.57,1.021,7.82,5.077,7.82,9.76v24.341c0,4.683-3.25,8.738-7.82,9.76      l-30.338,6.776c-2.1,7.257-4.989,14.232-8.638,20.848l16.659,26.313c2.502,3.953,1.93,9.112-1.378,12.421l-17.194,17.194      c-3.31,3.309-8.469,3.879-12.421,1.378l-26.323-16.666c-6.646,3.657-13.619,6.548-20.837,8.642l-6.777,30.341      C376.908,492.75,372.853,496,368.17,496z M351.843,476h8.314l6.367-28.503c0.846-3.786,3.804-6.74,7.59-7.582      c9.265-2.059,18.104-5.722,26.27-10.887c3.268-2.065,7.431-2.064,10.694,0.002l24.727,15.654l5.877-5.877l-15.654-24.727      c-2.072-3.273-2.067-7.449,0.013-10.718c5.138-8.074,8.796-16.904,10.872-26.246c0.842-3.786,3.797-6.744,7.582-7.59      l28.503-6.366v-8.315l-28.503-6.367c-3.786-0.846-6.74-3.804-7.582-7.59c-2.059-9.265-5.722-18.104-10.887-26.27      c-2.065-3.267-2.065-7.43,0.002-10.694l15.654-24.727l-5.87-5.869l-24.723,15.693c-3.28,2.081-7.467,2.077-10.741-0.014      c-7.995-5.105-16.838-8.782-26.28-10.929c-3.765-0.855-6.701-3.803-7.543-7.571l-6.367-28.502h-8.314l-6.367,28.502      c-0.842,3.769-3.778,6.716-7.543,7.571c-9.442,2.146-18.285,5.823-26.28,10.929c-3.274,2.089-7.463,2.096-10.741,0.014      l-24.723-15.693l-5.87,5.869l15.654,24.727c2.067,3.265,2.067,7.428,0.002,10.694c-5.165,8.166-8.828,17.005-10.887,26.27      c-0.842,3.786-3.796,6.744-7.582,7.59l-28.502,6.367v8.315l28.502,6.366c3.785,0.846,6.74,3.804,7.582,7.59      c2.06,9.267,5.722,18.104,10.887,26.27c2.065,3.266,2.065,7.43-0.002,10.694l-15.654,24.727l5.877,5.877l24.727-15.654      c3.272-2.073,7.448-2.067,10.717,0.013c8.076,5.139,16.906,8.796,26.247,10.872c3.786,0.842,6.744,3.796,7.59,7.582L351.843,476      z"/></g><rect x="199.003" y="446" width="20" height="20"/><rect x="179.003" y="426" width="20" height="20"/><rect x="459.003" y="156" width="20" height="20"/><rect x="439.003" y="136" width="20" height="20"/><g><path d="M349.003,166c-5.522,0-10-4.477-10-10V26c0-5.523,4.478-10,10-10s10,4.477,10,10v130      C359.003,161.523,354.525,166,349.003,166z"/></g><g><path d="M369.003,56c-2.56,0-5.118-0.976-7.071-2.929l-12.929-12.929l-12.929,12.929c-3.906,3.905-10.236,3.905-14.143,0      c-3.905-3.905-3.905-10.237,0-14.143l20-20c3.906-3.905,10.236-3.905,14.143,0l20,20c3.905,3.905,3.905,10.237,0,14.143      C374.121,55.024,371.563,56,369.003,56z"/></g><g><path d="M419.003,166c-5.522,0-10-4.477-10-10V26c0-5.523,4.478-10,10-10s10,4.477,10,10v130      C429.003,161.523,424.525,166,419.003,166z"/></g><g><path d="M439.003,56c-2.56,0-5.118-0.976-7.071-2.929l-12.929-12.929l-12.929,12.929c-3.906,3.905-10.236,3.905-14.143,0      c-3.905-3.905-3.905-10.237,0-14.143l20-20c3.906-3.905,10.236-3.905,14.143,0l20,20c3.905,3.905,3.905,10.237,0,14.143      C444.121,55.024,441.563,56,439.003,56z"/></g><g><path d="M419.003,206c-5.522,0-10-4.477-10-10v-10c0-5.523,4.478-10,10-10s10,4.477,10,10v10      C429.003,201.523,424.525,206,419.003,206z"/></g><g><path d="M349.003,206c-5.522,0-10-4.477-10-10v-10c0-5.523,4.478-10,10-10s10,4.477,10,10v10      C359.003,201.523,354.525,206,349.003,206z"/></g><g><path d="M79.003,456c-5.523,0-10-4.478-10-10V316c0-5.522,4.477-10,10-10s10,4.478,10,10v130      C89.003,451.522,84.526,456,79.003,456z"/></g><g><path d="M99.003,346c-2.559,0-5.119-0.977-7.071-2.929l-12.929-12.929l-12.929,12.929c-3.905,3.904-10.237,3.904-14.143,0      c-3.905-3.905-3.905-10.237,0-14.143l20-20c3.905-3.904,10.237-3.904,14.143,0l20,20c3.905,3.905,3.905,10.237,0,14.143      C104.122,345.023,101.563,346,99.003,346z"/></g><g><path d="M149.003,456c-5.523,0-10-4.478-10-10V316c0-5.522,4.477-10,10-10s10,4.478,10,10v130      C159.003,451.522,154.526,456,149.003,456z"/></g><g><path d="M169.003,346c-2.559,0-5.119-0.977-7.071-2.929l-12.929-12.929l-12.929,12.929c-3.905,3.904-10.237,3.904-14.143,0      c-3.905-3.905-3.905-10.237,0-14.143l20-20c3.905-3.904,10.237-3.904,14.143,0l20,20c3.905,3.905,3.905,10.237,0,14.143      C174.122,345.023,171.563,346,169.003,346z"/></g><g><path d="M149.003,496c-5.523,0-10-4.478-10-10v-10c0-5.522,4.477-10,10-10s10,4.478,10,10v10      C159.003,491.522,154.526,496,149.003,496z"/></g><g><path d="M79.003,496c-5.523,0-10-4.478-10-10v-10c0-5.522,4.477-10,10-10s10,4.478,10,10v10      C89.003,491.522,84.526,496,79.003,496z"/></g></g></g></g><text x="0" y="527" fill="#000000" font-size="5px" font-weight="bold" font-family="'Helvetica Neue', Helvetica, Arial-Unicode, Arial, Sans-serif">Created by Flatart</text><text x="0" y="532" fill="#000000" font-size="5px" font-weight="bold" font-family="'Helvetica Neue', Helvetica, Arial-Unicode, Arial, Sans-serif">from the Noun Project</text></svg>