<svg xmlns="http://www.w3.org/2000/svg" xmlns:xlink="http://www.w3.org/1999/xlink" version="1.1" x="0px" y="0px" viewBox="0 0 100 125" enable-background="new 0 0 100 100" xml:space="preserve"><metadata><?xpacket begin="&#65279;" id="W5M0MpCehiHzreSzNTczkc9d"?><x:xmpmeta xmlns:x="adobe:ns:meta/" x:xmptk="Adobe XMP Core 5.6-c011 79.156289, 2014/03/31-23:39:12        "/><?xpacket end="w"?></metadata><g><g><g><g><path d="M55.8,26.8l-0.1,0.8c0,0-0.6,0.9-0.7,1s-0.7,0.9-0.8,1.1c-0.2,0.2-0.5,0.5-0.7,0.9c-0.1,0.4-0.1,1.2-0.3,1.4      c-0.2,0.2-0.1,1-0.3,1.5c-0.2,0.4,0.3,2.3,0.3,2.3l0-2.3c0,0,0.5,0,0.4,0.1c-0.1,0.1-0.4,0.8-0.2,1c0.2,0.1,0.6,1.2,0.5,1.4      c-0.1,0.1-0.2,0.7-0.2,1c0.1,0.3,0,0,0.6,0.6c0.6,0.6,1.5,0.9,1.6,1c0.1,0.1,0.5,0.4,0.7,0.6c0.3,0.3,0.8-0.2,0.8,0.6      c0,0.8,0.1,1.4,0.1,1.4s0.6,0,0.7,0.1c0.1,0.1,0.4,0.1,0.5,0.1c0.1,0,0.3-0.2,0.3,0.1c0.1,0.3-0.2,0.5-0.1,0.6      c0.1,0.2-0.6,1.4-0.9,1.5C58,43.8,58,44.3,58,44.3s0.7,1.4,0.7,1.7c0,0.3,0.2,0.5,0.3,0.7c0.1,0.2,1,1.7,1,1.7s-0.5,1.4-0.9,1.8      c-0.3,0.4-0.3,0.5-0.6,1.1c-0.3,0.5-0.5,1.1-0.6,1.3c-0.1,0.2-0.1,0.4,0.1,0.7c0.2,0.3,0.4,0.3,0.6,0.6c0.2,0.2,0.2,0.4,0.3,0.2      c0.1-0.2,0.4-0.5,0.3-0.8c-0.1-0.2,0.1-0.4,0.1-0.5c0-0.1,0.8-0.5,1-0.6c0.2-0.1,0.9-1,1.7-1c0.8,0,1.2-0.4,1.5-0.4      c0.3,0,0.8-0.6,0.8-0.6s0.4-0.8,0.7-0.8c0.3,0,0.9-0.1,1.2-0.1c0.3,0,0.7-0.5,0.9-0.9c0.1-0.4,0.1-1.2,0.4-1.2      c0.3,0,1.2-0.1,1.5-0.8c0.4-0.7,0.3-1.3-0.2-1.5c-0.6-0.1-1,0.1-1.7-0.6c-0.7-0.7-1.2-0.9-1.5-1.2c-0.3-0.4-0.1-0.3-0.7-0.7      c-0.5-0.4-0.6-0.4-0.9-0.4c-0.3,0-0.2-0.5-0.5-0.6c-0.2-0.1-1.1-0.4-1.3-0.5c-0.2-0.1-0.7-0.3-1.1-0.3c-0.4,0-1.4,0.4-1.4,0.4      s-0.3,0-0.4-0.1c-0.1-0.1-0.7-0.1-0.7-0.1l-0.3-0.3c0,0,0-0.3,0.1-0.5c0.1-0.2,0.2-0.9,0.2-0.9s0.1-0.1-0.1-0.2      c-0.2-0.1-0.4-0.1-0.5-0.1c-0.2,0-0.5-0.2-0.5-0.2s0.2-0.3,0.3-0.4c0.1-0.2,0.3-0.7,0.3-0.7s-0.2-0.2-0.5-0.2      c-0.2-0.1-0.5-0.1-0.5-0.1l-0.3,0.5c0,0-0.4,0.1-0.5,0.1c-0.1,0-0.9-0.3-0.9-0.3s0.2-0.7,0.3-1c0.1-0.2,0.6-1,0.6-1      s0.6-0.3,0.8-0.3c0.2,0,0.7,0,0.8,0c0.1,0.1,0.6,0.2,0.6,0.2s0.2,0.2,0.4,0.3c0.2,0.1,0.4,1,0.4,1l0.5,0.2l0-1l0.1-0.5l1.3-0.8      c0,0,0.3-0.8,0.4-0.9c0.1-0.1,1-0.3,1.2-0.4c0.3-0.2,0.3-0.7,0.5-0.7c0.2,0.1,1,0.2,1,0.1c0-0.1-0.5-0.6-0.5-0.7      c0-0.1,0.1-0.5,0.2-0.5c0.1,0.1,0.8,0.1,0.8,0.1s-0.2,0.5-0.1,0.6c0.1,0.1,1,0.2,1,0.2s-0.2-0.8-0.4-0.9c-0.2-0.1-0.8-1.3-1-1.4      c-0.2-0.1-0.3-0.1-0.5-0.2c-0.2-0.2-1.1-0.7-1.2-0.8c-0.1-0.1-0.3-0.2-0.4,0.1c-0.1,0.3-0.3,0.8-0.4,1c-0.1,0.2-0.3,0.4-0.3,0.5      c-0.1,0.1-0.5-0.3-0.5-0.6c0-0.3,0.4-0.4,0-0.6c-0.3-0.2-0.6-0.3-0.7-0.4c-0.1-0.2-0.1-0.2-0.1-0.2s0.1-0.3,0.3-0.3      c0.1-0.1,0.5-0.1,0.5-0.1s0.5,0,0.6,0c0.1,0.1,0.5,0,0.5,0l0.2-0.4c0,0,0.1,0.3,0.4,0.3c0.2,0.1,0.6,0.3,0.6,0.3      s0.9,0.2,0.7-0.1c-0.2-0.3-0.5-0.6-0.7-1.1c-0.1-0.5-0.6-0.9-0.3-0.8c0.3,0.1,1.1,0.4,1.4,0.8c0.2,0.4,0.7,1.1,0.8,1.4      c0.1,0.2,0.3,0.8,0.6,0.5c0.3-0.3,0.1-0.9,0.4-1c0.3-0.1,0.8,0,0.8-0.4c0.1-0.4-1.1-1.2-1.3-1.5c-0.1-0.3,0.2,1.4-0.8-0.6      C64.6,25.6,55.8,26.8,55.8,26.8z M58.7,25l2.3-0.2c1,0,1.9,0.1,2.9,0.3c0,0,0,0,0,0c-0.1,0.2-0.1,0.6-0.1,0.6      c0,0.1-1.7,0.2-2.1,0.3c-0.4,0-0.4-0.2-1.1,0c-0.8,0.2-0.5,0.3-1.1,0.3c-0.6,0-0.7,0.1-0.8-0.1C58.5,26.1,58.6,25.3,58.7,25z"/></g></g><g><g><path d="M60.9,24.6c-7.4,0-13.7,5.1-15.5,11.9H46c1.8-6.5,7.8-11.3,14.9-11.3c8.5,0,15.5,6.9,15.5,15.5s-7,15.5-15.5,15.5      c-7.5,0-13.8-5.4-15.2-12.4h-0.6c1.4,7.4,7.9,13,15.8,13c8.9,0,16.1-7.2,16.1-16S69.8,24.6,60.9,24.6z"/></g></g></g><g><g><g><path d="M43.5,44.1h-4.3c0,0-0.1,0-0.1,0l-4.3-1.7c-0.1,0-0.2-0.1-0.2-0.3v-4.1c0-0.1,0.1-0.2,0.2-0.3l4.3-1.8c0,0,0.1,0,0.1,0      h4.3c0.2,0,0.3,0.1,0.3,0.3v1.5c0,0.1-0.1,0.2-0.2,0.3c-0.7,0.3-1.1,1.1-1.1,2s0.4,1.7,1.1,2c0.1,0,0.2,0.1,0.2,0.3v1.3      C43.8,44,43.7,44.1,43.5,44.1z M39.3,43.6h3.9v-0.9c-0.8-0.4-1.2-1.3-1.2-2.5c0-1.1,0.5-2,1.2-2.5v-1.1h-3.9l-4.1,1.7V42      L39.3,43.6z"/></g></g><g><g><g><rect x="49.3" y="38" width="1.4" height="0.8"/></g></g><g><g><rect x="49.3" y="39.1" width="1.4" height="0.8"/></g></g><g><g><rect x="49.3" y="40.2" width="1.4" height="0.8"/></g></g><g><g><rect x="49.3" y="41.4" width="1.4" height="0.8"/></g></g><g><g><path d="M47.9,39.4v-1.7h2.8v-0.8h-6.4v1.2c-0.6,0.4-1.2,1.2-1.2,2.1s0.7,1.7,1.2,2.1v1h6.4v-0.8h-2.8v-1.7H44       c0,0-0.2-0.2-0.2-0.7c0-0.5,0.2-0.7,0.2-0.7H47.9z"/></g></g></g></g><g><g><path d="M24.7,75.4H23V47.3c0-6.3,5.4-8.1,8.3-8.1h2.8v1.7h-2.8c-0.3,0-6.6,0.2-6.6,6.5V75.4z"/></g></g></g><text x="0" y="115" fill="#000000" font-size="5px" font-weight="bold" font-family="'Helvetica Neue', Helvetica, Arial-Unicode, Arial, Sans-serif">Created by 23 icons</text><text x="0" y="120" fill="#000000" font-size="5px" font-weight="bold" font-family="'Helvetica Neue', Helvetica, Arial-Unicode, Arial, Sans-serif">from the Noun Project</text></svg>