<svg xmlns="http://www.w3.org/2000/svg" xmlns:xlink="http://www.w3.org/1999/xlink" version="1.1" x="0px" y="0px" viewBox="0 0 95 118.75" enable-background="new 0 0 95 95" xml:space="preserve"><path d="M67.4,51c-0.2-0.3-0.5-0.5-0.9-0.5c-0.1,0-2,0.1-4.6,1.2c-2.5,1.1-5.7,3.2-8,7.2c-1.5,2.6-2.1,5.2-2.1,7.4  c0,1,0.1,1.8,0.3,2.7c-1.7-2.4-3.1-4.8-4.3-7.1c0-0.2-0.1-0.3-0.2-0.4c-0.9-1.9-1.7-3.7-2.4-5.6c0.1,0,0.2,0,0.2,0  c1,0,2.6-0.1,4.5-0.8c1.9-0.7,4-2,5.8-4.4c2-2.7,2.5-5.5,2.5-7.8c0-2.5-0.7-4.3-0.7-4.4c-0.1-0.4-0.5-0.6-0.8-0.6c0,0-0.3,0-0.7,0  c-0.9,0-2.5,0.1-4.4,0.8c-1.9,0.7-4.1,2-6,4.3c-1.5,1.9-2.3,3.8-2.6,5.6c-0.9-3.9-1.2-7.8-1.2-11.4c0-0.2,0-0.4,0-0.6  c0.6,0.1,1.4,0.2,2.3,0.2c1.8,0,4.2-0.5,6.5-2.2c1.9-1.5,3-3.3,3.5-5c0.6-1.6,0.6-3.1,0.6-3.8c0-0.3,0-0.5,0-0.5  c0-0.4-0.3-0.7-0.6-0.8c-0.1,0-1.4-0.6-3.4-0.6c-1.8,0-4.2,0.5-6.6,2.1c-0.6,0.4-1,0.8-1.5,1.3c0.5-2.9,1.2-5.6,1.9-8.2  c0.4-0.1,1-0.2,1.7-0.6c1.2-0.6,2.6-1.7,3.3-3.7c0.4-1,0.5-2,0.5-2.9c0-2.4-1.1-3.9-1.2-4c-0.2-0.3-0.6-0.5-1-0.4  c-0.1,0-1,0.2-2.1,0.8c-1.1,0.6-2.5,1.7-3.3,3.5c-0.4,1-0.6,2-0.6,2.9c0,1.6,0.5,2.8,0.9,3.5c0,0.1-0.1,0.1-0.1,0.2v0  c-0.5,1.5-0.9,3.1-1.3,4.8c-0.4-0.9-1-1.8-1.9-2.7c-2.3-2.2-4.9-2.6-6.4-2.6c-0.9,0-1.5,0.1-1.6,0.2c-0.4,0.1-0.6,0.4-0.7,0.7  c0,0.1-0.2,0.7-0.2,1.7c0,1.6,0.4,4.2,2.5,6.4c2.2,2.2,4.7,2.7,6.3,2.6c0.3,0,0.6,0,0.9,0c-0.1,1-0.2,1.9-0.3,2.9  c-0.1,0.6-0.1,1.2-0.1,1.7c0,0.1,0,0.2,0,0.3c0,0.9-0.1,1.7-0.1,2.6c0,0.8,0,1.6,0.1,2.4c-0.9-1.2-2.3-2.3-4.3-3  c-1.3-0.5-2.6-0.6-3.7-0.6c-3.6,0-5.8,1.8-5.9,1.8c-0.3,0.2-0.4,0.6-0.4,1c0,0.1,0.3,1.4,1.2,2.9c0.9,1.6,2.5,3.4,5.1,4.4  c1.3,0.5,2.6,0.7,3.7,0.7c2.2,0,3.9-0.7,4.9-1.2c0.6,3.8,1.6,7.7,3.1,11.7c-1.5-1.2-3.6-2.3-6.3-2.5c-0.4,0-0.8-0.1-1.2-0.1  c-3.2,0-5.6,1.1-7.2,2.1c-1.6,1.1-2.4,2.1-2.5,2.2c-0.2,0.3-0.3,0.7-0.1,1c0,0.1,0.7,1.5,2.2,3.1c1.5,1.6,3.9,3.3,7.3,3.7  c0.6,0.1,1.1,0.1,1.6,0.1c3,0,5.3-1.1,6.9-2.1c0.9-0.6,1.5-1.2,1.9-1.6c1.7,3.4,3.9,6.7,6.5,10.1c-1.2-0.4-2.6-0.6-4.1-0.6  c-0.7,0-1.3,0-2.1,0.1c-4.4,0.6-7.4,2.6-9.3,4.4c-1.9,1.8-2.7,3.5-2.7,3.6c-0.2,0.3-0.1,0.7,0.1,1c0,0.1,1.1,1.5,3.2,2.9  c2,1.4,5,2.8,8.7,2.8c0.4,0,0.9,0,1.4-0.1c4.3-0.4,7.4-2.4,9.3-4.3c0.9-0.9,1.6-1.8,2.1-2.5c0.8,0.8,1.6,1.6,2.5,2.4  c0.4,0.4,1,0.3,1.4-0.1c0.4-0.4,0.3-1-0.1-1.4c-1.1-1-2.2-2.1-3.3-3.2c-0.2-0.3-1-1.4-2.4-2.5c-0.4-0.5-0.8-0.9-1.2-1.4  c0.9-0.2,2-0.5,3.4-1c2.6-1.1,5.7-3.2,7.8-7.3c1.3-2.5,1.8-5,1.8-7.2C69.4,54.3,67.5,51.1,67.4,51z M44.5,12.7  c0.6-1.3,1.5-2.1,2.4-2.6c0.3-0.2,0.6-0.3,0.9-0.4c0.2,0.5,0.5,1.3,0.5,2.3c0,0.6-0.1,1.4-0.4,2.2c-0.5,1.2-1.2,1.9-1.9,2.4l1.5-3.4  c0.2-0.5,0-1.1-0.5-1.3c-0.5-0.2-1.1,0-1.3,0.5l-1.4,3.3c0-0.3-0.1-0.5-0.1-0.8C44,14.1,44.2,13.4,44.5,12.7z M47.2,44.3  c1.7-2,3.5-3.1,5.1-3.7c1.5-0.6,2.8-0.7,3.6-0.7c0.2,0.6,0.4,1.7,0.4,3c0,1.9-0.4,4.3-2.1,6.6c-1.5,2-3.3,3.1-4.9,3.7  c-1.2,0.5-2.4,0.6-3.2,0.7l7.1-8.8c0.3-0.4,0.3-1.1-0.1-1.4c-0.4-0.3-1.1-0.3-1.4,0.1L45,52c-0.1-0.4-0.1-0.9-0.1-1.4  C44.9,48.7,45.4,46.5,47.2,44.3z M42.5,31.2c0.5-1.2,1.3-2.4,2.8-3.5c2-1.4,4-1.8,5.5-1.8c0.8,0,1.5,0.1,2,0.2c0,0,0,0,0.1,0  c0,0.6-0.1,1.7-0.5,2.8c-0.5,1.4-1.3,2.8-2.9,4c-1.9,1.4-3.8,1.8-5.3,1.8c-0.3,0-0.6,0-0.9,0l5.9-4.5c0.4-0.3,0.5-1,0.2-1.4  s-1-0.5-1.4-0.2l-6,4.6c0-0.1,0-0.2,0-0.3C42.2,32.3,42.3,31.7,42.5,31.2z M32.7,20.6c0-0.2,0-0.4,0-0.6c0.1,0,0.3,0,0.5,0  c1.2,0,3.2,0.3,5.1,2.1c1.5,1.4,1.9,3,2,4.2L36,22c-0.4-0.4-1-0.4-1.4,0c-0.4,0.4-0.4,1,0,1.4l4.1,4.2c-1.2-0.1-2.7-0.6-4.1-2  C33,23.9,32.7,21.9,32.7,20.6z M32.7,44.2c-2.1-0.8-3.3-2.3-4.1-3.6c-0.4-0.6-0.6-1.2-0.8-1.7c0,0,0,0,0,0c0.7-0.4,2.2-1.1,4.1-1.1  c0.9,0,1.9,0.1,3,0.5c2.3,0.8,3.5,2.2,4.2,3.5c0.1,0.2,0.2,0.3,0.2,0.5l-6.6-2.6c-0.5-0.2-1.1,0.1-1.3,0.6c-0.2,0.5,0.1,1.1,0.6,1.3  l6.5,2.6c-0.8,0.3-1.8,0.5-2.9,0.5C34.7,44.8,33.7,44.6,32.7,44.2z M37.4,64.9c-0.4,0-0.9,0-1.4-0.1c-2.8-0.4-4.8-1.8-6.1-3.1  c-0.7-0.7-1.1-1.3-1.4-1.8c0-0.1-0.1-0.1-0.1-0.2c0.4-0.3,0.9-0.8,1.7-1.3c1.4-0.9,3.3-1.7,6-1.7c0.3,0,0.7,0,1.1,0  c3,0.3,5,1.7,6.2,3c0.3,0.3,0.6,0.7,0.8,1l-10.6-1.4c-0.5-0.1-1.1,0.3-1.1,0.9c-0.1,0.5,0.3,1.1,0.9,1.1l10.5,1.4  c-0.3,0.2-0.5,0.4-0.8,0.6C41.6,64.1,39.8,64.9,37.4,64.9z M47.9,85.4c-0.4,0-0.8,0.1-1.2,0.1c-3.2,0-5.8-1.2-7.6-2.5  c-0.9-0.6-1.6-1.2-2-1.7c-0.1-0.1-0.2-0.2-0.2-0.2c0.4-0.6,1.1-1.6,2.2-2.6c1.7-1.6,4.2-3.2,8-3.7c0.6-0.1,1.2-0.1,1.8-0.1  c3.2,0,5.6,1.2,7.2,2.5c0.1,0.1,0.2,0.1,0.2,0.2c0.3,0.4,0.6,0.7,1,1.1l-14.4,1.1c-0.6,0-1,0.5-0.9,1.1c0,0.6,0.5,1,1.1,0.9  l14.3-1.1c-0.4,0.5-0.8,1-1.4,1.5C54.1,83.4,51.6,85.1,47.9,85.4z M65.8,65.2c-1.9,3.6-4.6,5.4-6.9,6.4c-0.8,0.3-1.5,0.6-2.2,0.7  l7.2-13.8c0.3-0.5,0.1-1.1-0.4-1.4c-0.5-0.3-1.1-0.1-1.4,0.4L55,71.4c-0.5-1.2-1.1-3-1.1-5.1c0-1.9,0.4-4.1,1.8-6.4  c2.1-3.6,4.8-5.4,7-6.4c1.1-0.5,2.1-0.8,2.8-0.9c0.2,0,0.3-0.1,0.4-0.1c0.5,1.1,1.4,3.4,1.4,6.3C67.4,60.8,67,63,65.8,65.2z"/><text x="0" y="110" fill="#000000" font-size="5px" font-weight="bold" font-family="'Helvetica Neue', Helvetica, Arial-Unicode, Arial, Sans-serif">Created by Savannah Vize</text><text x="0" y="115" fill="#000000" font-size="5px" font-weight="bold" font-family="'Helvetica Neue', Helvetica, Arial-Unicode, Arial, Sans-serif">from the Noun Project</text></svg>