<svg id="Capa_1" enable-background="new 0 0 512.001 512.001" height="512" viewBox="0 0 512.001 512.001" width="512" xmlns="http://www.w3.org/2000/svg"><g><path d="m384.259 343.662c4.142 0 7.5-3.358 7.5-7.5v-8.016c0-4.142-3.358-7.5-7.5-7.5s-7.5 3.358-7.5 7.5v8.016c0 4.142 3.358 7.5 7.5 7.5z"/><path d="m376.759 392.275c0 4.142 3.358 7.5 7.5 7.5s7.5-3.358 7.5-7.5v-8.016c0-4.142-3.358-7.5-7.5-7.5s-7.5 3.358-7.5 7.5z"/><path d="m480.452 352.71h-24.959c-.797-7.623-2.808-14.885-5.813-21.611l21.634-12.49c3.587-2.071 4.816-6.658 2.745-10.245-2.071-3.588-6.659-4.817-10.245-2.745l-21.651 12.5c-4.416-6.058-9.755-11.397-15.813-15.813l12.5-21.651c2.071-3.587.842-8.174-2.745-10.245-3.587-2.072-8.174-.842-10.245 2.745l-12.49 21.634c-6.726-3.005-13.989-5.016-21.611-5.813v-24.959c0-4.142-3.358-7.5-7.5-7.5s-7.5 3.358-7.5 7.5v24.959c-7.623.797-14.885 2.808-21.612 5.813l-12.49-21.634c-2.072-3.587-6.658-4.817-10.245-2.745-3.587 2.071-4.816 6.658-2.745 10.245l12.5 21.651c-6.058 4.416-11.397 9.755-15.813 15.813l-21.651-12.5c-3.587-2.072-8.174-.842-10.245 2.745s-.842 8.174 2.745 10.245l21.634 12.49c-3.005 6.726-5.016 13.989-5.813 21.611h-24.959c-4.142 0-7.5 3.358-7.5 7.5s3.358 7.5 7.5 7.5h24.963c.785 7.476 2.739 14.78 5.784 21.626l-21.609 12.476c-3.587 2.071-4.816 6.658-2.745 10.245 1.389 2.406 3.91 3.751 6.502 3.751 1.272 0 2.562-.324 3.743-1.006l27.769-16.032c3.587-2.071 4.816-6.658 2.745-10.245-.027-.047-.059-.088-.087-.134-4.906-8.533-7.5-18.273-7.5-28.181 0-31.225 25.404-56.629 56.629-56.629s56.629 25.404 56.629 56.629c0 31.226-25.404 56.629-56.629 56.629-9.906 0-19.645-2.593-28.176-7.497-.047-.029-.091-.062-.139-.09-3.587-2.072-8.174-.842-10.245 2.745l-16.032 27.769c-2.071 3.587-.842 8.174 2.745 10.245 1.181.682 2.471 1.006 3.743 1.006 2.592 0 5.113-1.346 6.502-3.751l12.476-21.609c6.846 3.045 14.15 4.998 21.626 5.783v24.963c0 4.142 3.358 7.5 7.5 7.5s7.5-3.358 7.5-7.5v-24.959c7.623-.797 14.885-2.808 21.611-5.813l12.49 21.634c1.389 2.406 3.91 3.751 6.502 3.751 1.272 0 2.562-.324 3.743-1.006 3.587-2.071 4.816-6.658 2.745-10.245l-12.5-21.651c6.058-4.416 11.397-9.755 15.813-15.813l21.651 12.5c1.181.682 2.471 1.006 3.743 1.006 2.592 0 5.113-1.346 6.502-3.751 2.071-3.587.842-8.174-2.745-10.245l-21.634-12.49c3.005-6.726 5.016-13.989 5.813-21.612h24.959c4.142 0 7.5-3.358 7.5-7.5s-3.358-7.499-7.5-7.499z"/><path d="m416.323 367.71c4.142 0 7.5-3.358 7.5-7.5s-3.358-7.5-7.5-7.5h-8.016c-4.142 0-7.5 3.358-7.5 7.5s3.358 7.5 7.5 7.5z"/><path d="m352.194 367.71h8.016c4.142 0 7.5-3.358 7.5-7.5s-3.358-7.5-7.5-7.5h-8.016c-4.142 0-7.5 3.358-7.5 7.5s3.358 7.5 7.5 7.5z"/><path d="m507.455 136.881c-52.114-22.335-67.838-67.191-67.984-67.624-.793-2.379-2.723-4.204-5.142-4.864l-176.355-48.096c-1.292-.353-2.655-.353-3.947 0l-176.355 48.097c-2.406.656-4.335 2.484-5.136 4.846-.153.45-15.876 45.307-67.991 67.642-3.13 1.342-4.963 4.624-4.464 7.993.334 2.258 8.596 56.103 43.797 126.505 20.646 41.292 46.329 79.665 76.333 114.053 37.51 42.989 81.909 79.826 131.964 109.488 1.179.699 2.501 1.048 3.824 1.048 1.322 0 2.645-.349 3.824-1.048 16.879-10.003 33.299-20.939 48.802-32.504 3.32-2.477 4.003-7.176 1.526-10.497-2.476-3.319-7.176-4.003-10.496-1.527-13.908 10.375-28.576 20.231-43.657 29.336-47.008-28.378-88.786-63.305-124.232-103.869-29.149-33.356-54.116-70.586-74.207-110.658-25.022-49.905-37.587-95.374-41.69-116.979 45.827-21.753 64.363-58.358 69.398-70.354l170.733-46.562 170.731 46.563c5.033 11.993 23.555 48.576 69.351 70.332-3.088 15.686-14.097 63.062-43.375 120.423-1.883 3.689-.419 8.207 3.271 10.09s8.206.418 10.09-3.271c36.923-72.341 45.504-128.226 45.851-130.57.499-3.369-1.334-6.651-4.464-7.993z"/><path d="m393.938 118.779c8.965 14.624 23.964 34.407 47.037 51.949-6.009 20.038-16.466 49.154-33.652 81.774-1.931 3.665-.525 8.201 3.139 10.131 3.664 1.931 8.2.525 10.131-3.139 19.27-36.572 30.356-68.927 36.263-89.629.869-3.046-.269-6.31-2.843-8.155-24.876-17.824-40.234-38.76-48.737-53.184-.992-1.683-2.603-2.913-4.488-3.427l-142.691-38.915c-.672-.196-1.375-.3-2.092-.3-.001 0-.003 0-.004 0-.714.008-1.421.103-2.093.299l-142.695 38.917c-1.885.514-3.495 1.744-4.488 3.427-8.505 14.427-23.867 35.366-48.746 53.19-2.575 1.845-3.713 5.108-2.844 8.154 8.256 28.936 24.508 73.623 55.05 122.196 36.519 58.079 84.17 107.12 141.629 145.761 1.266.851 2.726 1.276 4.186 1.276s2.92-.425 4.186-1.276c5.491-3.693 10.967-7.534 16.274-11.415 3.343-2.445 4.072-7.138 1.627-10.481-2.446-3.344-7.138-4.071-10.481-1.627-1.354.991-2.731 1.973-4.105 2.956v-334.055zm-271.054 165.303c-27.898-44.37-43.48-85.342-51.868-113.347 23.076-17.542 38.079-37.329 47.046-51.956l130.438-35.573v334.057c-50.506-36.131-92.725-80.873-125.616-133.181z"/></g></svg>